<svg version="1.2" xmlns="http://www.w3.org/2000/svg" viewBox="0 0 419 181" width="419" height="181"><defs><clipPath clipPathUnits="userSpaceOnUse" id="cp1"><path d="m405.4 3v169.78h-223.4v-169.78z"/></clipPath><linearGradient id="P" gradientUnits="userSpaceOnUse"/><linearGradient id="g1" x2="1" href="#P" gradientTransform="matrix(-223.027,99.183,-52.171,-117.314,433.141,-54.296)"><stop stop-color="#4dbceb" stop-opacity="1"/><stop offset="1" stop-color="#fefefe" stop-opacity=".3"/></linearGradient><linearGradient id="g2" x2="1" href="#P" gradientTransform="matrix(-234.662,104.358,-53.078,-119.352,438.814,-61.434)"><stop stop-color="#4dbceb" stop-opacity="1"/><stop offset="1" stop-color="#fefefe" stop-opacity=".3"/></linearGradient><linearGradient id="g3" x2="1" href="#P" gradientTransform="matrix(-250.42,111.366,-54.363,-122.242,447.312,-71.65)"><stop stop-color="#4dbceb" stop-opacity="1"/><stop offset="1" stop-color="#fefefe" stop-opacity=".3"/></linearGradient><linearGradient id="g4" x2="1" href="#P" gradientTransform="matrix(-209.894,93.343,-48.766,-109.656,429.567,-39.741)"><stop stop-color="#4dbceb" stop-opacity="1"/><stop offset="1" stop-color="#fefefe" stop-opacity=".3"/></linearGradient><linearGradient id="g5" x2="1" href="#P" gradientTransform="matrix(-219.607,97.663,-49.137,-110.491,433.933,-44.545)"><stop stop-color="#4dbceb" stop-opacity="1"/><stop offset="1" stop-color="#fefefe" stop-opacity=".3"/></linearGradient><linearGradient id="g6" x2="1" href="#P" gradientTransform="matrix(-232.754,103.509,-49.702,-111.761,440.414,-51.59)"><stop stop-color="#4dbceb" stop-opacity="1"/><stop offset="1" stop-color="#fefefe" stop-opacity=".3"/></linearGradient><linearGradient id="g7" x2="1" href="#P" gradientTransform="matrix(-251.668,111.921,-50.594,-113.767,450.805,-62.694)"><stop stop-color="#4dbceb" stop-opacity="1"/><stop offset="1" stop-color="#fefefe" stop-opacity=".3"/></linearGradient><linearGradient id="g8" x2="1" href="#P" gradientTransform="matrix(-281.056,124.99,-52.121,-117.2,469.107,-81.973)"><stop stop-color="#4dbceb" stop-opacity="1"/><stop offset="1" stop-color="#fefefe" stop-opacity=".3"/></linearGradient><linearGradient id="g9" x2="1" href="#P" gradientTransform="matrix(-196.734,87.49,-51.685,-116.219,426.987,-25.131)"><stop stop-color="#4dbceb" stop-opacity="1"/><stop offset="1" stop-color="#fefefe" stop-opacity=".3"/></linearGradient><linearGradient id="g10" x2="1" href="#P" gradientTransform="matrix(-204.446,90.92,-52.426,-117.888,430.245,-27.537)"><stop stop-color="#4dbceb" stop-opacity="1"/><stop offset="1" stop-color="#fefefe" stop-opacity=".3"/></linearGradient><linearGradient id="g11" x2="1" href="#P" gradientTransform="matrix(-214.939,95.587,-53.471,-120.235,435.028,-31.32)"><stop stop-color="#4dbceb" stop-opacity="1"/><stop offset="1" stop-color="#fefefe" stop-opacity=".3"/></linearGradient><linearGradient id="g12" x2="1" href="#P" gradientTransform="matrix(-230.054,102.308,-55.043,-123.772,442.568,-37.725)"><stop stop-color="#4dbceb" stop-opacity="1"/><stop offset="1" stop-color="#fefefe" stop-opacity=".3"/></linearGradient><linearGradient id="g13" x2="1" href="#P" gradientTransform="matrix(-295.97,131.622,-62.648,-140.871,482.608,-76.606)"><stop stop-color="#4dbceb" stop-opacity="1"/><stop offset="1" stop-color="#fefefe" stop-opacity=".3"/></linearGradient><linearGradient id="g14" x2="1" href="#P" gradientTransform="matrix(-183.551,81.628,-58.632,-131.842,425.509,-10.467)"><stop stop-color="#4dbceb" stop-opacity="1"/><stop offset="1" stop-color="#fefefe" stop-opacity=".3"/></linearGradient><linearGradient id="g15" x2="1" href="#P" gradientTransform="matrix(-189.239,84.157,-60.303,-135.6,427.936,-10.443)"><stop stop-color="#4dbceb" stop-opacity="1"/><stop offset="1" stop-color="#fefefe" stop-opacity=".3"/></linearGradient><linearGradient id="g16" x2="1" href="#P" gradientTransform="matrix(-197.017,87.616,-62.597,-140.757,431.396,-10.886)"><stop stop-color="#4dbceb" stop-opacity="1"/><stop offset="1" stop-color="#fefefe" stop-opacity=".3"/></linearGradient><linearGradient id="g17" x2="1" href="#P" gradientTransform="matrix(-208.256,92.614,-65.952,-148.302,436.66,-12.445)"><stop stop-color="#4dbceb" stop-opacity="1"/><stop offset="1" stop-color="#fefefe" stop-opacity=".3"/></linearGradient><linearGradient id="g18" x2="1" href="#P" gradientTransform="matrix(-225.943,100.48,-71.32,-160.373,445.482,-16.947)"><stop stop-color="#4dbceb" stop-opacity="1"/><stop offset="1" stop-color="#fefefe" stop-opacity=".3"/></linearGradient><linearGradient id="g19" x2="1" href="#P" gradientTransform="matrix(-172.909,76.895,-67.08,-150.837,426.421,4.049)"><stop stop-color="#4dbceb" stop-opacity="1"/><stop offset="1" stop-color="#fefefe" stop-opacity=".3"/></linearGradient><linearGradient id="g20" x2="1" href="#P" gradientTransform="matrix(-176.981,78.706,-70.005,-157.416,428.653,6.534)"><stop stop-color="#4dbceb" stop-opacity="1"/><stop offset="1" stop-color="#fefefe" stop-opacity=".3"/></linearGradient><linearGradient id="g21" x2="1" href="#P" gradientTransform="matrix(-182.512,81.166,-73.99,-166.375,431.702,9.518)"><stop stop-color="#4dbceb" stop-opacity="1"/><stop offset="1" stop-color="#fefefe" stop-opacity=".3"/></linearGradient><linearGradient id="g22" x2="1" href="#P" gradientTransform="matrix(-190.544,84.738,-79.759,-179.349,436.141,12.991)"><stop stop-color="#4dbceb" stop-opacity="1"/><stop offset="1" stop-color="#fefefe" stop-opacity=".3"/></linearGradient><linearGradient id="g23" x2="1" href="#P" gradientTransform="matrix(-203.243,90.385,-88.909,-199.924,443.146,16.514)"><stop stop-color="#4dbceb" stop-opacity="1"/><stop offset="1" stop-color="#fefefe" stop-opacity=".3"/></linearGradient><linearGradient id="g24" x2="1" href="#P" gradientTransform="matrix(-226.443,100.702,-105.708,-237.697,455.701,16.979)"><stop stop-color="#4dbceb" stop-opacity="1"/><stop offset="1" stop-color="#fefefe" stop-opacity=".3"/></linearGradient><linearGradient id="g25" x2="1" href="#P" gradientTransform="matrix(-282.738,125.738,-147.748,-332.231,483.932,-9.578)"><stop stop-color="#4dbceb" stop-opacity="1"/><stop offset="1" stop-color="#fefefe" stop-opacity=".3"/></linearGradient><linearGradient id="g26" x2="1" href="#P" gradientTransform="matrix(-176.752,78.604,-83.595,-187.974,432.705,17.96)"><stop stop-color="#4dbceb" stop-opacity="1"/><stop offset="1" stop-color="#fefefe" stop-opacity=".3"/></linearGradient><linearGradient id="g27" x2="1" href="#P" gradientTransform="matrix(-181.418,80.679,-89.519,-201.295,435.973,23.013)"><stop stop-color="#4dbceb" stop-opacity="1"/><stop offset="1" stop-color="#fefefe" stop-opacity=".3"/></linearGradient><linearGradient id="g28" x2="1" href="#P" gradientTransform="matrix(-187.783,83.51,-97.776,-219.863,440.493,29.673)"><stop stop-color="#4dbceb" stop-opacity="1"/><stop offset="1" stop-color="#fefefe" stop-opacity=".3"/></linearGradient><linearGradient id="g29" x2="1" href="#P" gradientTransform="matrix(-197.034,87.624,-110.096,-247.564,447.181,38.831)"><stop stop-color="#4dbceb" stop-opacity="1"/><stop offset="1" stop-color="#fefefe" stop-opacity=".3"/></linearGradient><linearGradient id="g30" x2="1" href="#P" gradientTransform="matrix(-211.691,94.142,-130.38,-293.177,458.076,52.521)"><stop stop-color="#4dbceb" stop-opacity="1"/><stop offset="1" stop-color="#fefefe" stop-opacity=".3"/></linearGradient><linearGradient id="g31" x2="1" href="#P" gradientTransform="matrix(-238.618,106.117,-169.844,-381.916,479.049,72.905)"><stop stop-color="#4dbceb" stop-opacity="1"/><stop offset="1" stop-color="#fefefe" stop-opacity=".3"/></linearGradient><linearGradient id="g32" x2="1" href="#P" gradientTransform="matrix(-165.082,73.414,-87.717,-197.242,432.707,34.624)"><stop stop-color="#4dbceb" stop-opacity="1"/><stop offset="1" stop-color="#fefefe" stop-opacity=".3"/></linearGradient><linearGradient id="g33" x2="1" href="#P" gradientTransform="matrix(-167.187,74.35,-93.818,-210.961,435.307,43.009)"><stop stop-color="#4dbceb" stop-opacity="1"/><stop offset="1" stop-color="#fefefe" stop-opacity=".3"/></linearGradient><linearGradient id="g34" x2="1" href="#P" gradientTransform="matrix(-169.784,75.505,-102.055,-229.485,438.652,54.56)"><stop stop-color="#4dbceb" stop-opacity="1"/><stop offset="1" stop-color="#fefefe" stop-opacity=".3"/></linearGradient><linearGradient id="g35" x2="1" href="#P" gradientTransform="matrix(-172.836,76.863,-113.637,-255.528,443.057,71.515)"><stop stop-color="#4dbceb" stop-opacity="1"/><stop offset="1" stop-color="#fefefe" stop-opacity=".3"/></linearGradient><linearGradient id="g36" x2="1" href="#P" gradientTransform="matrix(-176.097,78.313,-130.911,-294.371,449.012,98.893)"><stop stop-color="#4dbceb" stop-opacity="1"/><stop offset="1" stop-color="#fefefe" stop-opacity=".3"/></linearGradient><linearGradient id="g37" x2="1" href="#P" gradientTransform="matrix(-137.803,61.283,-71.69,-161.204,434.291,51.123)"><stop stop-color="#4dbceb" stop-opacity="1"/><stop offset="1" stop-color="#fefefe" stop-opacity=".3"/></linearGradient><linearGradient id="g38" x2="1" href="#P" gradientTransform="matrix(-135.551,60.282,-73.948,-166.283,437.562,62.428)"><stop stop-color="#4dbceb" stop-opacity="1"/><stop offset="1" stop-color="#fefefe" stop-opacity=".3"/></linearGradient><linearGradient id="g39" x2="1" href="#P" gradientTransform="matrix(-132.11,58.751,-76.404,-171.805,442.071,78.122)"><stop stop-color="#4dbceb" stop-opacity="1"/><stop offset="1" stop-color="#fefefe" stop-opacity=".3"/></linearGradient></defs><style>.a{fill:url(#g1)}.b{fill:url(#g2)}.c{fill:url(#g3)}.d{fill:url(#g4)}.e{fill:url(#g5)}.f{fill:url(#g6)}.g{fill:url(#g7)}.h{fill:url(#g8)}.i{fill:url(#g9)}.j{fill:url(#g10)}.k{fill:url(#g11)}.l{fill:url(#g12)}.m{fill:url(#g13)}.n{fill:url(#g14)}.o{fill:url(#g15)}.p{fill:url(#g16)}.q{fill:url(#g17)}.r{fill:url(#g18)}.s{fill:url(#g19)}.t{fill:url(#g20)}.u{fill:url(#g21)}.v{fill:url(#g22)}.w{fill:url(#g23)}.x{fill:url(#g24)}.y{fill:url(#g25)}.z{fill:url(#g26)}.A{fill:url(#g27)}.B{fill:url(#g28)}.C{fill:url(#g29)}.D{fill:url(#g30)}.E{fill:url(#g31)}.F{fill:url(#g32)}.G{fill:url(#g33)}.H{fill:url(#g34)}.I{fill:url(#g35)}.J{fill:url(#g36)}.K{fill:url(#g37)}.L{fill:url(#g38)}.M{fill:url(#g39)}.N{fill:#0152a0}.O{fill:#fefefe}.P{fill:#054ca4}</style><g clip-path="url(#cp1)"><path class="a" d="m279.7 18.5l16.2 4.3 8.5-2.7-14.8-3.9z"/><path class="b" d="m265 21.8l18.3 5.1 11-3.6-16.6-4.4z"/><path class="c" d="m245.3 26.3l21.1 6 14.7-4.7-18.7-5.2z"/><path class="d" d="m298.2 23.4l16.9 4.5 6.7-3.2-15.3-4.1z"/><path class="e" d="m285.9 27.6l19.2 5.3 8.7-4.3-17.2-4.6z"/><path class="f" d="m269.4 33.2l22.1 6.3 11.9-5.8-19.6-5.4z"/><path class="g" d="m245.9 41.1l26.3 7.9 16.9-8.3-22.7-6.6z"/><path class="h" d="m210.2 53.1l32.1 10.5 26.3-12.9-27-8.2z"/><path class="i" d="m317.5 28.6l17.6 4.7 4.8-3.9-15.9-4.2z"/><path class="j" d="m307.8 33.6l20.1 5.5 6.3-5.1-17.9-4.8z"/><path class="k" d="m294.7 40.4l23.4 6.7 8.6-6.9-20.6-5.7z"/><path class="l" d="m275.9 50.1l28.1 8.5 12.4-10.1-24-6.9z"/><path class="m" d="m196.1 91.5l46 17.3 35.3-28.7-36.2-12z"/><path class="n" d="m337.6 34l18.3 4.9 2.7-4.6-16.5-4.3z"/><path class="o" d="m330.8 39.9l21 5.8 3.6-6-18.7-5z"/><path class="p" d="m321.4 48.1l24.8 7 4.9-8.2-21.5-5.9z"/><path class="q" d="m308 59.8l29.9 9.1 7.3-12.1-25.4-7.3z"/><path class="r" d="m286.8 78.2l38 12.5 11.6-19.3-30.9-9.4z"/><path class="s" d="m358.5 39.5l19.1 5.2 0.5-5.3-17.1-4.5z"/><path class="t" d="m354.8 46.5l22.1 6.1 0.6-6.9-19.5-5.2z"/><path class="u" d="m349.7 56.1l26.2 7.5 0.9-9.6-22.7-6.2z"/><path class="v" d="m342.2 70.2l32.2 9.7 1.3-14.3-26.9-7.7z"/><path class="w" d="m330.3 92.5l41.7 13.7 2.1-23.3-33.3-10.1z"/><path class="x" d="m308.3 133.9l59.1 22.3 4.1-44.7-43.5-14.5z"/><path class="y" d="m253.9 236.3l101.5 51.8 11-120.5-63-24.5z"/><path class="z" d="m380.3 45.4l19.9 5.3-1.9-6-17.8-4.6z"/><path class="A" d="m380 53.5l23.2 6.4-2.6-8-20.3-5.5z"/><path class="B" d="m379.6 64.7l27.8 7.9-3.7-11.1-23.7-6.6z"/><path class="C" d="m379 81.3l34.6 10.4-5.5-16.7-28.6-8.3z"/><path class="D" d="m378 108.5l45.8 15.1-9-27.9-35.9-10.9z"/><path class="E" d="m376.2 159.5l67.8 25.6-18.1-55.5-48.1-16z"/><path class="F" d="m403 51.5l20.9 5.5-4.6-6.8-18.5-4.8z"/><path class="G" d="m406.5 60.8l24.4 6.7-6.1-9.1-21.3-5.7z"/><path class="H" d="m411.3 73.8l29.5 8.4-8.7-12.9-25-6.9z"/><path class="I" d="m418.5 93.2l37.3 11.3-13.2-19.6-30.4-8.8z"/><path class="J" d="m430.5 125.4l50.6 16.6-22.4-33.3-38.8-11.8z"/><path class="K" d="m426.8 57.8l21.7 5.8-7.4-7.6-19.2-5.1z"/><path class="L" d="m434.4 68.4l25.7 7.1-10.1-10.3-22.2-6z"/><path class="M" d="m445 83.4l31.4 9-14.3-14.8-26.4-7.3z"/></g><path class="N" d="m32.2 50.4h-17.2l-0.2 66.1h17.6v-31.9l22.1 31.6h20.8l-25-34.3 23.7-30.6h-20.1l-21.7 29.1z"/><path class="N" d="m138.4 83.4c0 18.6-15.6 33.7-35 33.7-19.3 0-34.9-15.1-34.9-33.7 0-18.6 15.6-33.7 34.9-33.7 19.4 0 35 15.1 35 33.7z"/><path class="O" d="m87 62.2v19.9h6.1l0.1-23.4z"/><path class="O" d="m95.8 57.8v24.2h7.5l0.1-26.1z"/><path class="O" d="m95.8 85.3v25.3h7.5v-25z"/><path class="O" d="m93.4 85.1h-6.2v20.4l6 3.8z"/><path class="O" d="m106.3 111v-55.3c0 0 25 3.9 21 33 0 0-2.1 19.1-21 22.3z"/><path class="N" d="m141.3 50.8v65.6l37.8-0.7c3.9-0.1 7.8-1.2 11.1-3.4 4-2.7 8-7.4 7.9-15.8 0 0 0.3-12.8-11-14.3 0 0 13.4-6.9 7.9-20.3 0 0-4-10.7-18.3-10.9z"/><path class="O" d="m152.9 59.7v22.8h-5.4v-22.9z"/><path class="O" d="m160.2 59.7v22.8h-5.4v-22.9z"/><path class="O" d="m152.9 85.2v22.8h-5.4v-22.8z"/><path class="O" d="m160.2 85.2v22.8h-5.4v-22.8z"/><path class="O" d="m166.2 103.4v-40c0 0 12.3-3.2 13.6 5.1 1.6 9.4-11.2 8.2-11.2 8.2v12.7c0 0 11.4-2.4 12.9 5 0.8 3.8-1.7 7.5-5.4 8.6-2.3 0.6-5.4 0.9-9.9 0.4z"/><path class="P" d="m212.1 111v-32.7h22.8v6.4h-14.3v6.1h13.4v6.3h-13.4v13.9zm53.1-12.3v2.2h-18.3q0.2 2.8 2 4.1 1.7 1.4 4.7 1.4 2.5 0 5.1-0.7 2.6-0.7 5.3-2.2v6q-2.8 1.1-5.5 1.6-2.8 0.5-5.6 0.5-6.7 0-10.4-3.3-3.6-3.4-3.6-9.5 0-6 3.6-9.5 3.6-3.4 10-3.4 5.7 0 9.2 3.5 3.5 3.4 3.5 9.3zm-18.3-2.6h10.2q0-2.3-1.3-3.6-1.3-1.4-3.4-1.4-2.3 0-3.7 1.3-1.4 1.3-1.8 3.7zm48.5 0v14.9h-7.9v-2.4-9q0-3.2-0.2-4.4-0.1-1.2-0.5-1.8-0.4-0.8-1.2-1.2-0.8-0.4-1.8-0.4-2.5 0-3.9 1.9-1.4 1.9-1.4 5.2v12.1h-7.8v-24.5h7.8v3.6q1.8-2.2 3.8-3.2 2-1 4.4-1 4.3 0 6.5 2.6 2.2 2.6 2.2 7.6zm26.5-8.9v6q-2.5-1.1-4.9-1.6-2.3-0.5-4.4-0.5-2.3 0-3.3 0.6-1.1 0.5-1.1 1.7 0 0.9 0.8 1.4 0.8 0.5 2.9 0.8l1.4 0.2q6.1 0.7 8.1 2.5 2.1 1.7 2.1 5.5 0 3.9-2.9 5.9-2.9 1.9-8.6 1.9-2.4 0-5-0.3-2.6-0.4-5.4-1.2v-6q2.4 1.2 4.8 1.8 2.5 0.5 5 0.5 2.3 0 3.5-0.6 1.2-0.6 1.2-1.9 0-1-0.8-1.6-0.8-0.5-3.2-0.8l-1.4-0.1q-5.2-0.7-7.3-2.5-2.1-1.7-2.1-5.4 0-3.9 2.6-5.7 2.7-1.9 8.2-1.9 2.2 0 4.6 0.3 2.4 0.3 5.2 1zm8.5-7.7h7.9v7h8.1v5.6h-8.1v10.4q0 1.7 0.6 2.3 0.7 0.6 2.7 0.6h4.1v5.6h-6.8q-4.6 0-6.5-1.9-2-2-2-6.6v-10.4h-3.9v-5.6h3.9zm45.8 19.1v2.3h-18.3q0.2 2.7 2 4.1 1.7 1.4 4.7 1.4 2.5 0 5.1-0.7 2.6-0.8 5.3-2.3v6.1q-2.8 1-5.5 1.6-2.8 0.5-5.6 0.5-6.7 0-10.4-3.4-3.6-3.4-3.6-9.5 0-6 3.6-9.4 3.6-3.5 10-3.5 5.7 0 9.2 3.5 3.5 3.5 3.5 9.3zm-18.3-2.6h10.2q0-2.2-1.3-3.6-1.3-1.3-3.4-1.3-2.3 0-3.7 1.2-1.4 1.3-1.8 3.7zm42-10v7.1q-1-0.5-2-0.7-1-0.2-2.1-0.2-3 0-4.6 1.9-1.7 1.9-1.7 5.6v11.3h-7.8v-24.6h7.8v4.1q1.6-2.4 3.5-3.5 2-1.2 4.7-1.2 0.4 0 0.9 0.1 0.4 0 1.3 0.1z"/><path class="P" d="m15.7 140v-13.2h9.2v2.5h-5.8v2.5h5.4v2.6h-5.4v5.6zm20.8-5v0.9h-7.5q0.2 1.1 0.8 1.7 0.7 0.5 2 0.5 1 0 2-0.2 1.1-0.3 2.2-1v2.5q-1.1 0.4-2.3 0.6-1.1 0.3-2.2 0.3-2.7 0-4.2-1.4-1.5-1.4-1.5-3.9 0-2.4 1.5-3.8 1.4-1.4 4-1.4 2.4 0 3.8 1.4 1.4 1.4 1.4 3.8zm-7.4-1.1h4.1q0-0.9-0.5-1.4-0.6-0.6-1.4-0.6-0.9 0-1.5 0.6-0.6 0.5-0.7 1.4zm20.4 0v6.1h-3.2v-1-3.6q0-1.3 0-1.8-0.1-0.5-0.2-0.7-0.2-0.3-0.5-0.5-0.3-0.2-0.7-0.2-1 0-1.6 0.8-0.6 0.8-0.6 2.1v4.9h-3.2v-9.9h3.2v1.4q0.7-0.9 1.5-1.3 0.9-0.4 1.8-0.4 1.8 0 2.6 1.1 0.9 1 0.9 3zm10.8-3.5v2.4q-1-0.4-2-0.7-0.9-0.2-1.8-0.2-0.9 0-1.3 0.3-0.4 0.2-0.4 0.7 0 0.3 0.3 0.5 0.3 0.2 1.2 0.3l0.5 0.1q2.5 0.3 3.3 1 0.9 0.8 0.9 2.3 0 1.6-1.2 2.4-1.2 0.8-3.5 0.8-1 0-2-0.2-1.1-0.2-2.2-0.5v-2.4q1 0.5 2 0.7 1 0.2 2 0.2 0.9 0 1.4-0.2 0.5-0.3 0.5-0.8 0-0.4-0.4-0.6-0.3-0.2-1.3-0.3l-0.5-0.1q-2.1-0.3-3-1-0.8-0.7-0.8-2.2 0-1.6 1-2.3 1.1-0.8 3.4-0.8 0.8 0 1.8 0.2 1 0.1 2.1 0.4zm2.5-3.2h3.2v2.9h3.3v2.2h-3.3v4.2q0 0.7 0.3 1 0.3 0.2 1.1 0.2h1.6v2.3h-2.7q-1.9 0-2.7-0.8-0.8-0.8-0.8-2.7v-4.2h-1.5v-2.2h1.5zm18.7 7.7v0.9h-7.5q0.2 1.1 0.8 1.7 0.7 0.6 2 0.6 1 0 2-0.3 1.1-0.3 2.2-0.9v2.4q-1.1 0.4-2.3 0.7-1.1 0.2-2.2 0.2-2.7 0-4.2-1.4-1.5-1.4-1.5-3.8 0-2.5 1.5-3.9 1.4-1.4 4-1.4 2.4 0 3.8 1.5 1.4 1.4 1.4 3.7zm-7.4-1h4.1q0-0.9-0.5-1.5-0.6-0.5-1.4-0.5-0.9 0-1.5 0.5-0.6 0.5-0.7 1.5zm16.8-4.1v2.9q-0.4-0.2-0.8-0.3-0.4-0.1-0.8-0.1-1.3 0-1.9 0.8-0.7 0.8-0.7 2.2v4.6h-3.2v-9.9h3.2v1.6q0.6-1 1.4-1.4 0.8-0.5 1.9-0.5 0.2 0 0.4 0.1 0.2 0 0.5 0zm9 10.1v-3.4h3.2v3.4zm11.2-10.6v-2.6h12.2v2.6h-4.4v10.6h-3.4v-10.6zm12.3 6.8v-6.1h3.2v1q0 0.8 0 2 0 1.2 0 1.6 0 1.2 0.1 1.8 0 0.5 0.2 0.7 0.2 0.3 0.5 0.5 0.3 0.2 0.7 0.2 1 0 1.6-0.8 0.5-0.8 0.5-2.1v-4.9h3.2v9.9h-3.2v-1.4q-0.7 0.9-1.5 1.3-0.8 0.4-1.7 0.4-1.8 0-2.7-1.1-0.9-1-0.9-3zm2.2-8.1v-2.1h2.1v2.1zm3.5 0v-2.1h2.1v2.1zm14.8 1.8v2.9q-0.4-0.2-0.8-0.3-0.4-0.1-0.9-0.1-1.2 0-1.9 0.8-0.6 0.8-0.6 2.2v4.6h-3.2v-9.9h3.2v1.6q0.6-1 1.4-1.4 0.8-0.5 1.9-0.5 0.2 0 0.3 0.1 0.2 0 0.6 0zm11.5 5.1v0.9h-7.4q0.1 1.1 0.8 1.7 0.7 0.6 1.9 0.6 1 0 2.1-0.3 1.1-0.3 2.2-0.9v2.4q-1.2 0.4-2.3 0.7-1.1 0.2-2.2 0.2-2.7 0-4.2-1.4-1.5-1.4-1.5-3.8 0-2.5 1.4-3.9 1.5-1.4 4.1-1.4 2.3 0 3.7 1.5 1.4 1.4 1.4 3.7zm-7.4-1h4.2q0-0.9-0.6-1.5-0.5-0.5-1.3-0.5-1 0-1.5 0.5-0.6 0.5-0.8 1.5zm19.5 0v6h-3.2v-1-3.6q0-1.3-0.1-1.8 0-0.5-0.1-0.7-0.2-0.3-0.6-0.5-0.3-0.2-0.7-0.2-1 0-1.5 0.8-0.6 0.8-0.6 2.1v4.9h-3.2v-9.9h3.2v1.4q0.7-0.8 1.5-1.2 0.8-0.5 1.8-0.5 1.7 0 2.6 1.1 0.9 1.1 0.9 3.1zm9.3 6v-3.4h3.2v3.4zm16.3-7.4h1.4q1.1 0 1.5-0.4 0.5-0.4 0.5-1.3 0-0.9-0.5-1.3-0.4-0.4-1.5-0.4h-1.4zm0.9 2.4h-0.9v5h-3.5v-13.2h5.3q2.6 0 3.8 0.9 1.2 0.8 1.2 2.7 0 1.3-0.6 2.2-0.6 0.8-1.9 1.2 0.7 0.2 1.2 0.8 0.6 0.5 1.2 1.7l1.8 3.7h-3.6l-1.6-3.3q-0.5-1-1-1.3-0.5-0.4-1.4-0.4zm14.2-2.9q-1 0-1.6 0.8-0.5 0.7-0.5 2.2 0 1.4 0.5 2.2 0.6 0.7 1.6 0.7 1.1 0 1.6-0.7 0.6-0.8 0.6-2.2 0-1.5-0.6-2.2-0.5-0.8-1.6-0.8zm0-2.3q2.6 0 4 1.4 1.5 1.4 1.5 3.9 0 2.4-1.5 3.8-1.4 1.4-4 1.4-2.5 0-4-1.4-1.4-1.4-1.4-3.8 0-2.5 1.4-3.9 1.5-1.4 4-1.4zm8.3 10.2v-13.8h3.2v13.8zm6 0v-13.8h3.2v13.8zm6 0v-13.8h3.1v13.8zm13.1-4.4h-1.6q-1 0-1.5 0.3-0.5 0.3-0.5 1 0 0.6 0.4 0.9 0.4 0.4 1.1 0.4 0.9 0 1.5-0.7 0.6-0.6 0.6-1.6zm3.2-1.2v5.7h-3.2v-1.5q-0.6 0.9-1.4 1.3-0.8 0.4-1.9 0.4-1.6 0-2.5-0.9-1-0.9-1-2.3 0-1.7 1.2-2.6 1.2-0.8 3.8-0.8h1.8v-0.2q0-0.8-0.6-1.1-0.5-0.4-1.8-0.4-1 0-1.9 0.2-0.9 0.2-1.6 0.6v-2.4q1-0.2 2-0.4 1-0.1 2.1-0.1 2.7 0 3.8 1.1 1.2 1 1.2 3.4zm-7.4-6.2v-2.2h2.1v2.2zm3.5 0v-2.2h2.1v2.2zm13.4 3.4v-5.3h3.2v13.8h-3.2v-1.5q-0.7 0.9-1.5 1.3-0.8 0.4-1.8 0.4-1.8 0-3-1.4-1.2-1.5-1.2-3.8 0-2.3 1.2-3.7 1.2-1.5 3-1.5 1 0 1.8 0.4 0.8 0.4 1.5 1.3zm-2.1 6.4q1 0 1.5-0.7 0.6-0.8 0.6-2.2 0-1.4-0.6-2.1-0.5-0.8-1.5-0.8-1 0-1.6 0.8-0.5 0.7-0.5 2.1 0 1.4 0.5 2.2 0.6 0.7 1.6 0.7zm18.2-2.9v0.9h-7.4q0.1 1.1 0.8 1.7 0.7 0.5 1.9 0.5 1 0 2.1-0.3 1.1-0.3 2.2-0.9v2.5q-1.2 0.4-2.3 0.6-1.1 0.2-2.2 0.2-2.7 0-4.2-1.3-1.5-1.4-1.5-3.9 0-2.4 1.4-3.8 1.5-1.4 4.1-1.4 2.3 0 3.7 1.4 1.4 1.4 1.4 3.8zm-7.4-1.1h4.2q0-0.9-0.6-1.4-0.5-0.6-1.3-0.6-1 0-1.5 0.5-0.6 0.6-0.8 1.5zm19.5 0v6.1h-3.2v-1-3.6q0-1.3-0.1-1.8 0-0.5-0.2-0.7-0.1-0.3-0.5-0.5-0.3-0.2-0.7-0.2-1 0-1.5 0.8-0.6 0.7-0.6 2.1v4.9h-3.2v-10h3.2v1.5q0.7-0.9 1.5-1.3 0.8-0.4 1.8-0.4 1.7 0 2.6 1.1 0.9 1 0.9 3zm9.3 6.1v-3.4h3.2v3.4zm17.3-7.4h1.4q1.1 0 1.5-0.4 0.5-0.4 0.5-1.3 0-0.9-0.5-1.3-0.4-0.4-1.5-0.4h-1.4zm0.9 2.4h-0.9v5h-3.5v-13.3h5.3q2.6 0 3.8 0.9 1.2 0.9 1.2 2.8 0 1.3-0.6 2.2-0.6 0.8-1.9 1.2 0.7 0.2 1.2 0.7 0.6 0.6 1.2 1.7l1.8 3.8h-3.6l-1.6-3.3q-0.5-1-1-1.4-0.5-0.3-1.4-0.3zm15.6 0.5h-1.6q-1 0-1.5 0.4-0.5 0.3-0.5 0.9 0 0.6 0.4 1 0.4 0.3 1.1 0.3 0.9 0 1.5-0.6 0.6-0.7 0.6-1.6zm3.2-1.2v5.7h-3.2v-1.5q-0.6 0.9-1.4 1.3-0.8 0.4-2 0.4-1.5 0-2.5-0.9-0.9-0.9-0.9-2.3 0-1.8 1.2-2.6 1.2-0.8 3.7-0.8h1.9v-0.3q0-0.7-0.6-1.1-0.6-0.3-1.8-0.3-1.1 0-1.9 0.2-0.9 0.2-1.7 0.6v-2.4q1-0.3 2.1-0.4 1-0.1 2-0.1 2.7 0 3.9 1 1.2 1.1 1.2 3.5zm6.8-8.2h2.4v2.1h-1.7q-0.7 0-1 0.3-0.2 0.2-0.2 0.8v0.7h3.6v-0.7q0-1.6 0.9-2.4 0.9-0.8 2.8-0.8h2.5v2.1h-1.8q-0.7 0-0.9 0.3-0.3 0.2-0.3 0.8v0.7h2.7v2.3h-2.7v7.7h-3.2v-7.7h-3.6v7.7h-3.2v-7.7h-1.6v-2.3h1.6v-0.7q0-1.6 0.9-2.4 0.9-0.8 2.8-0.8zm20.3 1v2.8q-1.1-0.5-2.2-0.7-1-0.3-1.9-0.3-1.3 0-1.8 0.4-0.6 0.3-0.6 1 0 0.6 0.4 0.9 0.4 0.2 1.4 0.5l1.5 0.3q2.2 0.4 3.1 1.3 0.9 0.9 0.9 2.6 0 2.2-1.3 3.2-1.3 1.1-3.9 1.1-1.3 0-2.6-0.2-1.2-0.3-2.5-0.7v-2.9q1.3 0.6 2.4 1 1.2 0.3 2.3 0.3 1.2 0 1.7-0.3 0.6-0.4 0.6-1.1 0-0.6-0.4-1-0.4-0.3-1.6-0.6l-1.3-0.3q-2-0.4-2.9-1.3-0.9-0.9-0.9-2.5 0-2 1.3-3.1 1.2-1 3.6-1 1.1 0 2.3 0.1 1.1 0.2 2.4 0.5zm3.9 0.1h3.2v2.8h3.2v2.3h-3.2v4.2q0 0.7 0.2 0.9 0.3 0.3 1.1 0.3h1.7v2.3h-2.8q-1.8 0-2.6-0.8-0.8-0.8-0.8-2.7v-4.2h-1.6v-2.3h1.6zm12.4 4.9q-1 0-1.6 0.7-0.5 0.8-0.5 2.2 0 1.4 0.5 2.2 0.6 0.8 1.6 0.8 1.1 0 1.6-0.8 0.6-0.8 0.6-2.2 0-1.4-0.6-2.2-0.5-0.7-1.6-0.7zm0-2.3q2.6 0 4 1.4 1.5 1.4 1.5 3.8 0 2.5-1.5 3.8-1.4 1.4-4 1.4-2.5 0-4-1.4-1.4-1.3-1.4-3.8 0-2.4 1.4-3.8 1.5-1.4 4-1.4zm15.7 0.1v2.8q-0.4-0.2-0.8-0.2-0.5-0.1-0.9-0.1-1.2 0-1.9 0.7-0.6 0.8-0.6 2.3v4.6h-3.2v-10h3.2v1.7q0.6-1 1.4-1.5 0.8-0.4 1.9-0.4 0.2 0 0.3 0 0.2 0 0.6 0.1zm11.5 5.1v0.9h-7.4q0.1 1.1 0.8 1.7 0.7 0.5 1.9 0.5 1 0 2.1-0.3 1-0.3 2.2-0.9v2.5q-1.2 0.4-2.3 0.6-1.1 0.2-2.3 0.2-2.7 0-4.2-1.3-1.4-1.4-1.4-3.9 0-2.4 1.4-3.8 1.5-1.4 4.1-1.4 2.3 0 3.7 1.4 1.4 1.4 1.4 3.8zm-7.4-1.1h4.2q0-0.9-0.6-1.4-0.5-0.6-1.3-0.6-1 0-1.5 0.5-0.6 0.5-0.8 1.5z"/></svg>